{
	"asset":{
		"version":"2.0",
		"generator":"Created using the official Cinema 4D glTF Exporter 1.000x284978"
	},
	"scenes":[{
		"nodes":[0]
	}],
	"nodes":[{
		"name":"Airport",
		"translation":[0.0,
		0.0,
		0.0],
		"rotation":[0.0,
		0.0,
		0.0,
		-1.0],
		"scale":[1.0,
		1.0,
		1.0],
		"children":[1,
		2,
		3,
		4]
	},
	{
		"name":"Airport-Mat.7",
		"translation":[0.0,
		0.0,
		0.0],
		"rotation":[0.0,
		0.0,
		0.0,
		-1.0],
		"scale":[1.0,
		1.0,
		1.0],
		"mesh":0
	},
	{
		"name":"Airport-Mat.6",
		"translation":[0.0,
		0.0,
		0.0],
		"rotation":[0.0,
		0.0,
		0.0,
		-1.0],
		"scale":[1.0,
		1.0,
		1.0],
		"mesh":1
	},
	{
		"name":"Airport-Mat",
		"translation":[0.0,
		0.0,
		0.0],
		"rotation":[0.0,
		0.0,
		0.0,
		-1.0],
		"scale":[1.0,
		1.0,
		1.0],
		"mesh":2
	},
	{
		"name":"Airport-Mat.3",
		"translation":[0.0,
		0.0,
		0.0],
		"rotation":[0.0,
		0.0,
		0.0,
		-1.0],
		"scale":[1.0,
		1.0,
		1.0],
		"mesh":3
	}],
	"meshes":[{
		"name":"Airport-Mat.7",
		"primitives":[{
			"material":0,
			"attributes":{
				"POSITION":1,
				"NORMAL":2,
				"TEXCOORD_0":3
			},
			"indices":0
		}]
	},
	{
		"name":"Airport-Mat.6",
		"primitives":[{
			"material":1,
			"attributes":{
				"POSITION":5,
				"NORMAL":6,
				"TEXCOORD_0":7
			},
			"indices":4
		}]
	},
	{
		"name":"Airport-Mat",
		"primitives":[{
			"material":2,
			"attributes":{
				"POSITION":9,
				"NORMAL":10,
				"TEXCOORD_0":11
			},
			"indices":8
		}]
	},
	{
		"name":"Airport-Mat.3",
		"primitives":[{
			"material":3,
			"attributes":{
				"POSITION":13,
				"NORMAL":14,
				"TEXCOORD_0":15
			},
			"indices":12
		}]
	}],
	"accessors":[{
		"bufferView":0,
		"type":"SCALAR",
		"componentType":5123,
		"count":360,
		"byteOffset":0,
		"min":[0],
		"max":[149]
	},
	{
		"bufferView":1,
		"type":"VEC3",
		"componentType":5126,
		"count":150,
		"byteOffset":0,
		"min":[-18.315595626831056,
		0.050035566091537479,
		-43.463809967041019],
		"max":[-1.1742784976959229,
		0.050075847655534747,
		-30.125106811523439]
	},
	{
		"bufferView":1,
		"type":"VEC3",
		"componentType":5126,
		"count":150,
		"byteOffset":12,
		"min":[0.0,
		-1.0,
		-0.00003125000148429535],
		"max":[0.0,
		-1.0,
		0.00003125000148429535]
	},
	{
		"bufferView":1,
		"type":"VEC2",
		"componentType":5126,
		"count":150,
		"byteOffset":24,
		"min":[0.0,
		0.0],
		"max":[1.0,
		0.6394884586334229]
	},
	{
		"bufferView":2,
		"type":"SCALAR",
		"componentType":5123,
		"count":552,
		"byteOffset":0,
		"min":[0],
		"max":[229]
	},
	{
		"bufferView":3,
		"type":"VEC3",
		"componentType":5126,
		"count":230,
		"byteOffset":0,
		"min":[-16.92137908935547,
		0.050035566091537479,
		-42.71571731567383],
		"max":[1.9662998914718629,
		0.050075847655534747,
		-29.216562271118165]
	},
	{
		"bufferView":3,
		"type":"VEC3",
		"componentType":5126,
		"count":230,
		"byteOffset":12,
		"min":[0.0,
		-1.0,
		-0.00003125000148429535],
		"max":[0.0,
		-1.0,
		0.00003125000148429535]
	},
	{
		"bufferView":3,
		"type":"VEC2",
		"componentType":5126,
		"count":230,
		"byteOffset":24,
		"min":[0.0,
		0.0],
		"max":[1.0,
		0.6394884586334229]
	},
	{
		"bufferView":4,
		"type":"SCALAR",
		"componentType":5123,
		"count":270,
		"byteOffset":0,
		"min":[0],
		"max":[155]
	},
	{
		"bufferView":5,
		"type":"VEC3",
		"componentType":5126,
		"count":156,
		"byteOffset":0,
		"min":[-19.951404571533204,
		0.05000176280736923,
		-49.87030029296875],
		"max":[6.752098083496094,
		0.05008995905518532,
		-23.0049991607666]
	},
	{
		"bufferView":5,
		"type":"VEC3",
		"componentType":5126,
		"count":156,
		"byteOffset":12,
		"min":[0.0,
		1.0,
		0.0],
		"max":[0.0,
		1.0,
		0.00003125000148429535]
	},
	{
		"bufferView":5,
		"type":"VEC2",
		"componentType":5126,
		"count":156,
		"byteOffset":24,
		"min":[0.0,
		0.0],
		"max":[1.0,
		1.0]
	},
	{
		"bufferView":6,
		"type":"SCALAR",
		"componentType":5123,
		"count":561,
		"byteOffset":0,
		"min":[0],
		"max":[236]
	},
	{
		"bufferView":7,
		"type":"VEC3",
		"componentType":5126,
		"count":237,
		"byteOffset":0,
		"min":[-17.662193298339845,
		-0.05000000074505806,
		-42.88019943237305],
		"max":[4.864509105682373,
		1.8987497091293336,
		-29.872364044189454]
	},
	{
		"bufferView":7,
		"type":"VEC3",
		"componentType":5126,
		"count":237,
		"byteOffset":12,
		"min":[-1.0,
		0.0,
		-1.0],
		"max":[1.0,
		1.0,
		1.0]
	},
	{
		"bufferView":7,
		"type":"VEC2",
		"componentType":5126,
		"count":237,
		"byteOffset":24,
		"min":[0.031663678586483,
		0.0],
		"max":[0.9683365821838379,
		1.0]
	}],
	"bufferViews":[{
		"buffer":0,
		"byteOffset":0,
		"byteLength":720,
		"target":34963
	},
	{
		"buffer":0,
		"byteOffset":720,
		"byteLength":4800,
		"target":34962,
		"byteStride":32
	},
	{
		"buffer":1,
		"byteOffset":0,
		"byteLength":1104,
		"target":34963
	},
	{
		"buffer":1,
		"byteOffset":1104,
		"byteLength":7360,
		"target":34962,
		"byteStride":32
	},
	{
		"buffer":2,
		"byteOffset":0,
		"byteLength":540,
		"target":34963
	},
	{
		"buffer":2,
		"byteOffset":540,
		"byteLength":4992,
		"target":34962,
		"byteStride":32
	},
	{
		"buffer":3,
		"byteOffset":0,
		"byteLength":1122,
		"target":34963
	},
	{
		"buffer":3,
		"byteOffset":1124,
		"byteLength":7584,
		"target":34962,
		"byteStride":32
	}],
	"buffers":[{
		"uri":"data:application/octet-stream;base64,",
		"byteLength":5520
	},
	{
		"uri":"data:application/octet-stream;base64,",
		"byteLength":8464
	},
	{
		"uri":"data:application/octet-stream;base64,",
		"byteLength":5532
	},
	{
		"uri":"data:application/octet-stream;base64,",
		"byteLength":8708
	}],
	"materials":[{
		"name":"Mat.7",
		"pbrMetallicRoughness":{
			"baseColorFactor":[1.0,
			0.7390000000000001,
			0.71,
			1.0],
			"metallicFactor":0.0,
			"roughnessFactor":0.5
		},
		"emissiveFactor":[0.0,
		0.0,
		0.0],
		"alphaMode":"OPAQUE",
		"doubleSided":true
	},
	{
		"name":"Mat.6",
		"pbrMetallicRoughness":{
			"baseColorFactor":[1.0,
			0.39,
			0.39,
			1.0],
			"metallicFactor":0.0,
			"roughnessFactor":0.5
		},
		"emissiveFactor":[0.0,
		0.0,
		0.0],
		"alphaMode":"OPAQUE",
		"doubleSided":true
	},
	{
		"name":"Mat",
		"pbrMetallicRoughness":{
			"baseColorFactor":[0.5774333333333335,
			0.85,
			0.5355,
			1.0],
			"metallicFactor":0.0,
			"roughnessFactor":0.5
		},
		"emissiveFactor":[0.0,
		0.0,
		0.0],
		"alphaMode":"OPAQUE",
		"doubleSided":true
	},
	{
		"name":"Mat.3",
		"pbrMetallicRoughness":{
			"baseColorFactor":[1.0,
			1.0,
			1.0,
			1.0],
			"metallicFactor":0.0,
			"roughnessFactor":0.5
		},
		"emissiveFactor":[0.0,
		0.0,
		0.0],
		"alphaMode":"OPAQUE",
		"doubleSided":true
	}]
}