{
	"asset":{
		"version":"2.0",
		"generator":"Created using the official Cinema 4D glTF Exporter 1.000x284978"
	},
	"scenes":[{
		"nodes":[0]
	}],
	"nodes":[{
		"name":"AirportPlan",
		"translation":[0.0,
		0.0,
		0.0],
		"rotation":[0.0,
		0.0,
		0.0,
		-1.0],
		"scale":[1.0,
		1.0,
		1.0],
		"children":[1]
	},
	{
		"name":"AirportPlan-Mat.2",
		"translation":[0.0,
		0.0,
		0.0],
		"rotation":[0.0,
		0.0,
		0.0,
		-1.0],
		"scale":[1.0,
		1.0,
		1.0],
		"mesh":0
	}],
	"meshes":[{
		"name":"AirportPlan-Mat.2",
		"primitives":[{
			"attributes":{
				"POSITION":1,
				"NORMAL":2,
				"TEXCOORD_0":3
			},
			"indices":0,
			"material":0
		}]
	}],
	"accessors":[{
		"bufferView":0,
		"type":"SCALAR",
		"componentType":5123,
		"count":183,
		"byteOffset":0,
		"min":[0],
		"max":[62]
	},
	{
		"bufferView":1,
		"type":"VEC3",
		"componentType":5126,
		"count":63,
		"byteOffset":0,
		"min":[-17.558334350585939,
		0.10000000149011612,
		-42.80686569213867],
		"max":[4.791175842285156,
		0.10000000149011612,
		-29.945695877075197]
	},
	{
		"bufferView":1,
		"type":"VEC3",
		"componentType":5126,
		"count":63,
		"byteOffset":12,
		"min":[0.0,
		1.0,
		0.0],
		"max":[0.0,
		1.0,
		0.0]
	},
	{
		"bufferView":1,
		"type":"VEC2",
		"componentType":5126,
		"count":63,
		"byteOffset":24,
		"min":[0.004614254459738731,
		0.003259169403463602],
		"max":[0.9967408180236816,
		0.574184775352478]
	}],
	"bufferViews":[{
		"buffer":0,
		"byteOffset":0,
		"byteLength":366,
		"target":34963
	},
	{
		"buffer":0,
		"byteOffset":368,
		"byteLength":2016,
		"byteStride":32,
		"target":34962
	}],
	"buffers":[{
		"uri":"data:application/octet-stream;base64,",
		"byteLength":2384
	}],
	"materials":[{
		"pbrMetallicRoughness":{
			"baseColorFactor":[0.8,
			0.8,
			0.8,
			1.0],
			"metallicFactor":0.0,
			"roughnessFactor":0.5
		},
		"emissiveFactor":[0.0,
		0.0,
		0.0],
		"alphaMode":"OPAQUE",
		"doubleSided":true,
		"name":"Mat.2"
	}]
}