{
	"asset":{
		"version":"2.0",
		"generator":"Created using the official Cinema 4D glTF Exporter 1.000x284978"
	},
	"scenes":[{
		"nodes":[0]
	}],
	"nodes":[{
		"name":"AnimatedPlane",
		"translation":[-15.07242202758789,
		3.4582974910736086,
		8.008345603942871],
		"rotation":[-0.18161535263061524,
		-0.6833856105804443,
		-0.18161535263061524,
		0.6833856105804443],
		"mesh":0,
		"scale":[1.0,
		1.0,
		1.0]
	}],
	"meshes":[{
		"name":"AnimatedPlane",
		"primitives":[{
			"attributes":{
				"POSITION":1,
				"NORMAL":2,
				"TEXCOORD_0":3
			},
			"indices":0
		}]
	}],
	"accessors":[{
		"bufferView":0,
		"type":"SCALAR",
		"componentType":5123,
		"count":1452,
		"byteOffset":0,
		"min":[0],
		"max":[875]
	},
	{
		"bufferView":1,
		"type":"VEC3",
		"componentType":5126,
		"count":876,
		"byteOffset":0,
		"min":[-0.5530471205711365,
		-1.3877787807814458e-17,
		-0.5811784863471985],
		"max":[0.5530471205711365,
		0.3078363835811615,
		0.5811784863471985]
	},
	{
		"bufferView":1,
		"type":"VEC3",
		"componentType":5126,
		"count":876,
		"byteOffset":12,
		"min":[-1.0,
		-1.0,
		-1.0],
		"max":[1.0,
		1.0,
		1.0]
	},
	{
		"bufferView":1,
		"type":"VEC2",
		"componentType":5126,
		"count":876,
		"byteOffset":24,
		"min":[0.125,
		-1.1920928955078126e-7],
		"max":[1.0,
		1.0]
	},
	{
		"bufferView":2,
		"type":"SCALAR",
		"componentType":5126,
		"count":401,
		"byteOffset":0,
		"min":[0.0],
		"max":[13.333333015441895]
	},
	{
		"bufferView":2,
		"type":"VEC3",
		"componentType":5126,
		"count":401,
		"byteOffset":1604,
		"min":[-15.07242202758789,
		0.0,
		-0.005186550319194794],
		"max":[0.0,
		3.4582974910736086,
		8.008345603942871]
	},
	{
		"bufferView":3,
		"type":"SCALAR",
		"componentType":5126,
		"count":401,
		"byteOffset":0,
		"min":[0.0],
		"max":[13.333333015441895]
	},
	{
		"bufferView":3,
		"type":"VEC4",
		"componentType":5126,
		"count":401,
		"byteOffset":1604,
		"min":[-0.18161535263061524,
		-0.7071067690849304,
		-0.18161535263061524,
		-1.0],
		"max":[4.4899777229545638e-9,
		0.0,
		0.0,
		0.9999573230743408]
	}],
	"bufferViews":[{
		"buffer":0,
		"byteOffset":0,
		"byteLength":2904,
		"target":34963
	},
	{
		"buffer":0,
		"byteOffset":2904,
		"byteLength":28032,
		"target":34962,
		"byteStride":32
	},
	{
		"buffer":1,
		"byteOffset":0,
		"byteLength":6416
	},
	{
		"buffer":1,
		"byteOffset":6416,
		"byteLength":8020
	}],
	"buffers":[{
		"uri":"data:application/octet-stream;base64,",
		"byteLength":30936
	},
	{
		"uri":"data:application/octet-stream;base64,",
		"byteLength":14436
	}],
	"animations":[{
		"samplers":[{
			"input":4,
			"interpolation":"LINEAR",
			"output":5
		},
		{
			"input":6,
			"interpolation":"LINEAR",
			"output":7
		}],
		"channels":[{
			"sampler":0,
			"target":{
				"node":0,
				"path":"translation"
			}
		},
		{
			"sampler":1,
			"target":{
				"node":0,
				"path":"rotation"
			}
		}]
	}]
}