{
	"asset":{
		"version":"2.0",
		"generator":"Created using the official Cinema 4D glTF Exporter 1.000x284978"
	},
	"scenes":[{
		"nodes":[0]
	}],
	"nodes":[{
		"name":"Base",
		"translation":[0.0,
		0.0,
		0.0],
		"rotation":[0.0,
		0.0,
		0.0,
		-1.0],
		"mesh":0,
		"scale":[1.0,
		1.0,
		1.0]
	}],
	"meshes":[{
		"name":"Base",
		"primitives":[{
			"attributes":{
				"POSITION":1,
				"NORMAL":2,
				"TEXCOORD_0":3
			},
			"indices":0
		}]
	}],
	"accessors":[{
		"bufferView":0,
		"type":"SCALAR",
		"componentType":5123,
		"count":1146,
		"byteOffset":0,
		"min":[0],
		"max":[439]
	},
	{
		"bufferView":1,
		"type":"VEC3",
		"componentType":5126,
		"count":440,
		"byteOffset":0,
		"min":[-74.83667755126953,
		-1.0000000116860974e-7,
		-76.58723449707031],
		"max":[74.83667755126953,
		0.0,
		76.58723449707031]
	},
	{
		"bufferView":1,
		"type":"VEC3",
		"componentType":5126,
		"count":440,
		"byteOffset":12,
		"min":[-3.6238461120774447e-9,
		-1.0,
		0.0],
		"max":[0.0,
		-1.0,
		5.315707302908394e-15]
	},
	{
		"bufferView":1,
		"type":"VEC2",
		"componentType":5126,
		"count":440,
		"byteOffset":24,
		"min":[0.0,
		0.0],
		"max":[1.0,
		1.0]
	}],
	"bufferViews":[{
		"buffer":0,
		"byteOffset":0,
		"byteLength":2292,
		"target":34963
	},
	{
		"buffer":0,
		"byteOffset":2292,
		"byteLength":14080,
		"target":34962,
		"byteStride":32
	}],
	"buffers":[{
		"uri":"data:application/octet-stream;base64,",
		"byteLength":16372
	}]
}