{
	"asset":{
		"version":"2.0",
		"generator":"Created using the official Cinema 4D glTF Exporter 1.000x284978"
	},
	"scenes":[{
		"nodes":[0]
	}],
	"nodes":[{
		"name":"Buildings",
		"translation":[0.0,
		0.0,
		0.0],
		"rotation":[0.0,
		0.0,
		0.0,
		-1.0],
		"scale":[1.0,
		1.0,
		1.0],
		"children":[1,
		2]
	},
	{
		"name":"Buildings-Mat.3",
		"translation":[0.0,
		0.0,
		0.0],
		"rotation":[0.0,
		0.0,
		0.0,
		-1.0],
		"scale":[1.0,
		1.0,
		1.0],
		"mesh":0
	},
	{
		"name":"Buildings-Mat.4",
		"translation":[0.0,
		0.0,
		0.0],
		"rotation":[0.0,
		0.0,
		0.0,
		-1.0],
		"scale":[1.0,
		1.0,
		1.0],
		"mesh":1
	}],
	"meshes":[{
		"name":"Buildings-Mat.3",
		"primitives":[{
			"attributes":{
				"POSITION":1,
				"NORMAL":2,
				"TEXCOORD_0":3
			},
			"indices":0,
			"material":0
		}]
	},
	{
		"name":"Buildings-Mat.4",
		"primitives":[{
			"attributes":{
				"POSITION":5,
				"NORMAL":6,
				"TEXCOORD_0":7
			},
			"indices":4,
			"material":1
		}]
	}],
	"accessors":[{
		"bufferView":0,
		"type":"SCALAR",
		"componentType":5123,
		"count":4242,
		"byteOffset":0,
		"min":[0],
		"max":[2216]
	},
	{
		"bufferView":1,
		"type":"VEC3",
		"componentType":5126,
		"count":2217,
		"byteOffset":0,
		"min":[-56.26552963256836,
		-0.26455286145210268,
		-78.08905792236328],
		"max":[43.031551361083987,
		16.848844528198243,
		68.52700805664063]
	},
	{
		"bufferView":1,
		"type":"VEC3",
		"componentType":5126,
		"count":2217,
		"byteOffset":12,
		"min":[-1.0,
		-1.0,
		-1.0],
		"max":[1.0,
		1.0,
		1.0]
	},
	{
		"bufferView":1,
		"type":"VEC2",
		"componentType":5126,
		"count":2217,
		"byteOffset":24,
		"min":[0.0,
		0.0],
		"max":[1.0,
		1.0]
	},
	{
		"bufferView":2,
		"type":"SCALAR",
		"componentType":5123,
		"count":1722,
		"byteOffset":0,
		"min":[0],
		"max":[805]
	},
	{
		"bufferView":3,
		"type":"VEC3",
		"componentType":5126,
		"count":806,
		"byteOffset":0,
		"min":[-60.10004806518555,
		-0.26455286145210268,
		-71.30753326416016],
		"max":[49.75172424316406,
		14.620294570922852,
		44.428226470947269]
	},
	{
		"bufferView":3,
		"type":"VEC3",
		"componentType":5126,
		"count":806,
		"byteOffset":12,
		"min":[-1.0,
		-1.0,
		-1.0],
		"max":[1.0,
		1.0,
		1.0]
	},
	{
		"bufferView":3,
		"type":"VEC2",
		"componentType":5126,
		"count":806,
		"byteOffset":24,
		"min":[0.0,
		0.0],
		"max":[1.0,
		1.0]
	}],
	"bufferViews":[{
		"buffer":0,
		"byteOffset":0,
		"byteLength":8484,
		"target":34963
	},
	{
		"buffer":0,
		"byteOffset":8484,
		"byteLength":70944,
		"byteStride":32,
		"target":34962
	},
	{
		"buffer":1,
		"byteOffset":0,
		"byteLength":3444,
		"target":34963
	},
	{
		"buffer":1,
		"byteOffset":3444,
		"byteLength":25792,
		"byteStride":32,
		"target":34962
	}],
	"buffers":[{
		"uri":"data:application/octet-stream;base64,",
		"byteLength":79428
	},
	{
		"uri":"data:application/octet-stream;base64,",
		"byteLength":29236
	}],
	"materials":[{
		"pbrMetallicRoughness":{
			"baseColorFactor":[0.9400000000000001,
			0.9400000000000001,
			0.9400000000000001,
			1.0],
			"metallicFactor":0.0,
			"roughnessFactor":0.5
		},
		"emissiveFactor":[0.0,
		0.0,
		0.0],
		"alphaMode":"OPAQUE",
		"doubleSided":true,
		"name":"Mat.3"
	},
	{
		"pbrMetallicRoughness":{
			"baseColorFactor":[0.88,
			0.976,
			1.0,
			1.0],
			"metallicFactor":0.0,
			"roughnessFactor":0.5
		},
		"emissiveFactor":[0.0,
		0.0,
		0.0],
		"alphaMode":"OPAQUE",
		"doubleSided":true,
		"name":"Mat.4"
	}]
}