{
	"asset":{
		"version":"2.0",
		"generator":"Created using the official Cinema 4D glTF Exporter 1.000x284978"
	},
	"scenes":[{
		"nodes":[0]
	}],
	"accessors":[{
		"min":[0],
		"bufferView":0,
		"type":"SCALAR",
		"componentType":5123,
		"count":1374,
		"byteOffset":0,
		"max":[507]
	},
	{
		"min":[-318.206787109375,
		0.0,
		-317.3699951171875],
		"bufferView":1,
		"type":"VEC3",
		"componentType":5126,
		"count":508,
		"byteOffset":0,
		"max":[318.206787109375,
		0.0,
		317.7491149902344]
	},
	{
		"min":[0.0,
		1.0,
		0.0],
		"bufferView":1,
		"type":"VEC3",
		"componentType":5126,
		"count":508,
		"byteOffset":12,
		"max":[0.0,
		1.0,
		0.0]
	},
	{
		"min":[0.0,
		0.0],
		"bufferView":1,
		"type":"VEC2",
		"componentType":5126,
		"count":508,
		"byteOffset":24,
		"max":[1.0,
		1.0]
	}],
	"nodes":[{
		"rotation":[1.2246468525851679e-16,
		0.0,
		0.0,
		-1.0],
		"name":"Circulation",
		"translation":[0.0,
		0.0,
		0.0],
		"scale":[1.0,
		1.0,
		1.0],
		"mesh":0
	}],
	"meshes":[{
		"name":"Circulation",
		"primitives":[{
			"attributes":{
				"POSITION":1,
				"NORMAL":2,
				"TEXCOORD_0":3
			},
			"indices":0,
			"material":0
		}]
	}],
	"bufferViews":[{
		"buffer":0,
		"byteOffset":0,
		"byteLength":2748,
		"target":34963
	},
	{
		"buffer":0,
		"byteOffset":2748,
		"byteLength":16256,
		"target":34962,
		"byteStride":32
	}],
	"buffers":[{
		"uri":"data:application/octet-stream;base64,",
		"byteLength":19004
	}],
	"materials":[{
		"pbrMetallicRoughness":{
			"baseColorFactor":[0.20999999999999997,
			0.605,
			1.0,
			1.0],
			"metallicFactor":0.0,
			"roughnessFactor":0.5
		},
		"emissiveFactor":[0.0,
		0.0,
		0.0],
		"alphaMode":"OPAQUE",
		"doubleSided":true,
		"name":"Mat"
	}]
}