{
	"asset":{
		"version":"2.0",
		"generator":"Created using the official Cinema 4D glTF Exporter 1.000x284978"
	},
	"scenes":[{
		"nodes":[0]
	}],
	"nodes":[{
		"name":"Collaboration",
		"translation":[0.0,
		5.1861371994018559,
		0.0],
		"rotation":[0.0,
		0.0,
		0.0,
		-1.0],
		"scale":[1.0,
		1.0,
		1.0],
		"mesh":0
	}],
	"meshes":[{
		"name":"Collaboration",
		"primitives":[{
			"attributes":{
				"POSITION":1,
				"NORMAL":2,
				"TEXCOORD_0":3
			},
			"indices":0
		}]
	}],
	"accessors":[{
		"bufferView":0,
		"type":"SCALAR",
		"componentType":5123,
		"count":2592,
		"byteOffset":0,
		"min":[0],
		"max":[512]
	},
	{
		"bufferView":1,
		"type":"VEC3",
		"componentType":5126,
		"count":513,
		"byteOffset":0,
		"min":[-15.16161823272705,
		-0.008438875898718834,
		-14.45079231262207],
		"max":[12.763351440429688,
		4.537295818328857,
		13.227002143859864]
	},
	{
		"bufferView":1,
		"type":"VEC3",
		"componentType":5126,
		"count":513,
		"byteOffset":12,
		"min":[-0.9376875162124634,
		-0.9999688267707825,
		-0.917093813419342],
		"max":[0.9376875162124634,
		0.9999688267707825,
		0.917093813419342]
	},
	{
		"bufferView":1,
		"type":"VEC2",
		"componentType":5126,
		"count":513,
		"byteOffset":24,
		"min":[0.00390625,
		0.6193100214004517],
		"max":[0.9960938096046448,
		0.99609375]
	}],
	"bufferViews":[{
		"buffer":0,
		"byteOffset":0,
		"byteLength":5184,
		"target":34963
	},
	{
		"buffer":0,
		"byteOffset":5184,
		"byteLength":16416,
		"byteStride":32,
		"target":34962
	}],
	"buffers":[{
		"uri":"data:application/octet-stream;base64,",
		"byteLength":21600
	}]
}