{
	"asset":{
		"version":"2.0",
		"generator":"Created using the official Cinema 4D glTF Exporter 1.000x284978"
	},
	"scenes":[{
		"nodes":[0]
	}],
	"nodes":[{
		"name":"Data",
		"translation":[0.0,
		0.0,
		0.0],
		"rotation":[0.0,
		0.0,
		0.0,
		-1.0],
		"scale":[1.0,
		1.0,
		1.0],
		"mesh":0
	}],
	"meshes":[{
		"name":"Data",
		"primitives":[{
			"attributes":{
				"POSITION":1,
				"NORMAL":2,
				"TEXCOORD_0":3
			},
			"indices":0,
			"material":0
		}]
	}],
	"accessors":[{
		"bufferView":0,
		"type":"SCALAR",
		"componentType":5123,
		"count":120,
		"byteOffset":0,
		"min":[0],
		"max":[79]
	},
	{
		"bufferView":1,
		"type":"VEC3",
		"componentType":5126,
		"count":80,
		"byteOffset":0,
		"min":[-52.72857666015625,
		0.6464143991470337,
		-89.80428314208985],
		"max":[65.03002166748047,
		1.4577466249465943,
		72.60905456542969]
	},
	{
		"bufferView":1,
		"type":"VEC3",
		"componentType":5126,
		"count":80,
		"byteOffset":12,
		"min":[-0.012220355682075024,
		-0.9999979138374329,
		-0.0050325822085142139],
		"max":[0.002168727573007345,
		0.9999998807907105,
		0.00209196750074625]
	},
	{
		"bufferView":1,
		"type":"VEC2",
		"componentType":5126,
		"count":80,
		"byteOffset":24,
		"min":[-0.001647906145080924,
		0.014640524983406067],
		"max":[0.9826905727386475,
		0.9948662519454956]
	}],
	"bufferViews":[{
		"buffer":0,
		"byteOffset":0,
		"byteLength":240,
		"target":34963
	},
	{
		"buffer":0,
		"byteOffset":240,
		"byteLength":2560,
		"byteStride":32,
		"target":34962
	}],
	"buffers":[{
		"uri":"data:application/octet-stream;base64,",
		"byteLength":2800
	}],
	"materials":[{
		"pbrMetallicRoughness":{
			"baseColorFactor":[0.08820000000000002,
			0.2778300000000005,
			0.63,
			1.0],
			"metallicFactor":0.0,
			"roughnessFactor":0.5
		},
		"emissiveFactor":[0.0,
		0.0,
		0.0],
		"alphaMode":"OPAQUE",
		"doubleSided":true,
		"name":"Mat.1"
	}]
}