{
	"asset":{
		"version":"2.0",
		"generator":"Created using the official Cinema 4D glTF Exporter 1.000x284978"
	},
	"scenes":[{
		"nodes":[0]
	}],
	"nodes":[{
		"name":"Furniture",
		"translation":[0.0,
		0.0,
		0.0],
		"rotation":[0.0,
		0.0,
		0.0,
		-1.0],
		"mesh":0,
		"scale":[1.0,
		1.0,
		1.0]
	}],
	"meshes":[{
		"name":"Furniture",
		"primitives":[{
			"attributes":{
				"POSITION":1,
				"NORMAL":2,
				"TEXCOORD_0":3
			},
			"indices":0
		}]
	}],
	"accessors":[{
		"bufferView":0,
		"type":"SCALAR",
		"componentType":5123,
		"count":2928,
		"byteOffset":0,
		"min":[0],
		"max":[1891]
	},
	{
		"bufferView":1,
		"type":"VEC3",
		"componentType":5126,
		"count":1892,
		"byteOffset":0,
		"min":[-17.60453224182129,
		0.10000000149011612,
		-42.69270324707031],
		"max":[4.545569896697998,
		0.5074186325073242,
		-13.624542236328125]
	},
	{
		"bufferView":1,
		"type":"VEC3",
		"componentType":5126,
		"count":1892,
		"byteOffset":12,
		"min":[-1.0,
		-1.0,
		-1.0],
		"max":[1.0,
		1.0,
		1.0]
	},
	{
		"bufferView":1,
		"type":"VEC2",
		"componentType":5126,
		"count":1892,
		"byteOffset":24,
		"min":[0.0,
		0.0],
		"max":[1.0,
		1.0]
	}],
	"bufferViews":[{
		"buffer":0,
		"byteOffset":0,
		"byteLength":5856,
		"target":34963
	},
	{
		"buffer":0,
		"byteOffset":5856,
		"byteLength":60544,
		"target":34962,
		"byteStride":32
	}],
	"buffers":[{
		"uri":"data:application/octet-stream;base64,",
		"byteLength":66400
	}]
}