{
	"asset":{
		"version":"2.0",
		"generator":"Created using the official Cinema 4D glTF Exporter 1.000x284978"
	},
	"scenes":[{
		"nodes":[0]
	}],
	"nodes":[{
		"name":"Grass",
		"translation":[0.0,
		0.8039107918739319,
		0.0],
		"rotation":[0.0,
		0.0,
		0.0,
		-1.0],
		"scale":[1.0,
		1.0,
		1.0],
		"children":[1,
		2]
	},
	{
		"name":"Grass-Mat.5",
		"translation":[0.0,
		0.0,
		0.0],
		"rotation":[0.0,
		0.0,
		0.0,
		-1.0],
		"scale":[1.0,
		1.0,
		1.0],
		"mesh":0
	},
	{
		"name":"Grass-Mat",
		"translation":[0.0,
		0.0,
		0.0],
		"rotation":[0.0,
		0.0,
		0.0,
		-1.0],
		"scale":[1.0,
		1.0,
		1.0],
		"mesh":1
	}],
	"meshes":[{
		"name":"Grass-Mat.5",
		"primitives":[{
			"attributes":{
				"POSITION":1,
				"NORMAL":2,
				"TEXCOORD_0":3
			},
			"indices":0,
			"material":0
		}]
	},
	{
		"name":"Grass-Mat",
		"primitives":[{
			"attributes":{
				"POSITION":5,
				"NORMAL":6,
				"TEXCOORD_0":7
			},
			"indices":4,
			"material":1
		}]
	}],
	"accessors":[{
		"bufferView":0,
		"type":"SCALAR",
		"componentType":5123,
		"count":1284,
		"byteOffset":0,
		"min":[0],
		"max":[431]
	},
	{
		"bufferView":1,
		"type":"VEC3",
		"componentType":5126,
		"count":432,
		"byteOffset":0,
		"min":[-32.2303581237793,
		-0.2936129570007324,
		-13.024667739868164],
		"max":[-22.613733291625978,
		-0.2759740650653839,
		11.873236656188965]
	},
	{
		"bufferView":1,
		"type":"VEC3",
		"componentType":5126,
		"count":432,
		"byteOffset":12,
		"min":[0.0,
		-1.0,
		0.0],
		"max":[0.0,
		-1.0,
		0.0]
	},
	{
		"bufferView":1,
		"type":"VEC2",
		"componentType":5126,
		"count":432,
		"byteOffset":24,
		"min":[0.0,
		0.0],
		"max":[1.0,
		0.858147382736206]
	},
	{
		"bufferView":2,
		"type":"SCALAR",
		"componentType":5123,
		"count":1272,
		"byteOffset":0,
		"min":[0],
		"max":[469]
	},
	{
		"bufferView":3,
		"type":"VEC3",
		"componentType":5126,
		"count":470,
		"byteOffset":0,
		"min":[-62.020782470703128,
		-0.703910768032074,
		-62.86724853515625],
		"max":[70.5146255493164,
		-0.4853505790233612,
		65.05035400390625]
	},
	{
		"bufferView":3,
		"type":"VEC3",
		"componentType":5126,
		"count":470,
		"byteOffset":12,
		"min":[0.0,
		-1.0,
		0.0],
		"max":[0.0,
		1.0,
		0.0]
	},
	{
		"bufferView":3,
		"type":"VEC2",
		"componentType":5126,
		"count":470,
		"byteOffset":24,
		"min":[0.0,
		0.0],
		"max":[1.0,
		1.0]
	}],
	"bufferViews":[{
		"buffer":0,
		"byteOffset":0,
		"byteLength":2568,
		"target":34963
	},
	{
		"buffer":0,
		"byteOffset":2568,
		"byteLength":13824,
		"byteStride":32,
		"target":34962
	},
	{
		"buffer":1,
		"byteOffset":0,
		"byteLength":2544,
		"target":34963
	},
	{
		"buffer":1,
		"byteOffset":2544,
		"byteLength":15040,
		"byteStride":32,
		"target":34962
	}],
	"buffers":[{
		"uri":"data:application/octet-stream;base64,",
		"byteLength":16392
	},
	{
		"uri":"data:application/octet-stream;base64,",
		"byteLength":17584
	}],
	"materials":[{
		"pbrMetallicRoughness":{
			"baseColorFactor":[0.49,
			0.6684999999999999,
			1.0,
			1.0],
			"metallicFactor":0.0,
			"roughnessFactor":0.5
		},
		"emissiveFactor":[0.0,
		0.0,
		0.0],
		"alphaMode":"OPAQUE",
		"doubleSided":true,
		"name":"Mat.5"
	},
	{
		"pbrMetallicRoughness":{
			"baseColorFactor":[0.5774333333333335,
			0.85,
			0.5355,
			1.0],
			"metallicFactor":0.0,
			"roughnessFactor":0.5
		},
		"emissiveFactor":[0.0,
		0.0,
		0.0],
		"alphaMode":"OPAQUE",
		"doubleSided":true,
		"name":"Mat"
	}]
}