{
	"asset":{
		"version":"2.0",
		"generator":"Created using the official Cinema 4D glTF Exporter 1.000x284978"
	},
	"scenes":[{
		"nodes":[0]
	}],
	"nodes":[{
		"name":"Heatmap2",
		"translation":[0.0,
		0.10000000149011612,
		0.0],
		"rotation":[0.0,
		0.0,
		0.0,
		-1.0],
		"scale":[1.0,
		1.0,
		1.0],
		"mesh":0
	}],
	"meshes":[{
		"name":"Heatmap2",
		"primitives":[{
			"attributes":{
				"POSITION":1,
				"NORMAL":2,
				"TEXCOORD_0":3
			},
			"indices":0,
			"material":0
		}]
	}],
	"accessors":[{
		"bufferView":0,
		"type":"SCALAR",
		"componentType":5123,
		"count":366,
		"byteOffset":0,
		"min":[0],
		"max":[136]
	},
	{
		"bufferView":1,
		"type":"VEC3",
		"componentType":5126,
		"count":137,
		"byteOffset":0,
		"min":[-62.029212951660159,
		0.0,
		-62.92909622192383],
		"max":[55.5161247253418,
		5.083460905552784e-7,
		64.39925384521485]
	},
	{
		"bufferView":1,
		"type":"VEC3",
		"componentType":5126,
		"count":137,
		"byteOffset":12,
		"min":[0.0,
		1.0,
		-1.8135178692091359e-8],
		"max":[4.014374610505911e-8,
		1.0,
		4.335340975103463e-8]
	},
	{
		"bufferView":1,
		"type":"VEC2",
		"componentType":5126,
		"count":137,
		"byteOffset":24,
		"min":[0.000004411766894918401,
		0.000004411766894918401],
		"max":[0.9542102813720703,
		0.9999955892562866]
	}],
	"bufferViews":[{
		"buffer":0,
		"byteOffset":0,
		"byteLength":732,
		"target":34963
	},
	{
		"buffer":0,
		"byteOffset":732,
		"byteLength":4384,
		"target":34962,
		"byteStride":32
	}],
	"buffers":[{
		"uri":"data:application/octet-stream;base64,",
		"byteLength":5116
	}],
	"materials":[{
		"pbrMetallicRoughness":{
			"baseColorFactor":[0.5774333333333335,
			0.85,
			0.5355,
			1.0],
			"metallicFactor":0.0,
			"roughnessFactor":0.5
		},
		"emissiveFactor":[0.0,
		0.0,
		0.0],
		"alphaMode":"OPAQUE",
		"name":"Mat",
		"doubleSided":true
	}]
}