{
	"asset":{
		"version":"2.0",
		"generator":"Created using the official Cinema 4D glTF Exporter 1.000x284978"
	},
	"scenes":[{
		"nodes":[0]
	}],
	"nodes":[{
		"name":"Heatmap",
		"translation":[0.0,
		0.0,
		0.0],
		"rotation":[0.0,
		0.0,
		0.0,
		-1.0],
		"scale":[1.0,
		1.0,
		1.0],
		"mesh":0
	}],
	"meshes":[{
		"name":"Heatmap",
		"primitives":[{
			"attributes":{
				"POSITION":1,
				"NORMAL":2,
				"TEXCOORD_0":3
			},
			"indices":0
		}]
	}],
	"accessors":[{
		"bufferView":0,
		"type":"SCALAR",
		"max":[3],
		"componentType":5123,
		"count":6,
		"min":[0],
		"byteOffset":0
	},
	{
		"bufferView":1,
		"type":"VEC3",
		"max":[120.97700500488281,
		139.69149780273438,
		139.89334106445313],
		"componentType":5126,
		"count":4,
		"min":[-79.02299499511719,
		139.69149780273438,
		-92.01971435546875],
		"byteOffset":0
	},
	{
		"bufferView":1,
		"type":"VEC3",
		"max":[0.0,
		1.0,
		0.0],
		"componentType":5126,
		"count":4,
		"min":[0.0,
		1.0,
		0.0],
		"byteOffset":12
	},
	{
		"bufferView":1,
		"type":"VEC2",
		"max":[0.8557841777801514,
		0.9908827543258667],
		"componentType":5126,
		"count":4,
		"min":[0.00911717303097248,
		0.00911717303097248],
		"byteOffset":24
	}],
	"bufferViews":[{
		"buffer":0,
		"byteOffset":0,
		"byteLength":12,
		"target":34963
	},
	{
		"buffer":0,
		"byteOffset":12,
		"byteLength":128,
		"target":34962,
		"byteStride":32
	}],
	"buffers":[{
		"uri":"data:application/octet-stream;base64,",
		"byteLength":140
	}]
}