{
	"asset":{
		"version":"2.0",
		"generator":"Created using the official Cinema 4D glTF Exporter 1.000x284978"
	},
	"scenes":[{
		"nodes":[0]
	}],
	"nodes":[{
		"name":"Icons",
		"translation":[0.0,
		0.0,
		0.0],
		"rotation":[0.0,
		0.0,
		0.0,
		-1.0],
		"scale":[1.0,
		1.0,
		1.0],
		"mesh":0
	}],
	"meshes":[{
		"name":"Icons",
		"primitives":[{
			"attributes":{
				"POSITION":1,
				"NORMAL":2,
				"TEXCOORD_0":3
			},
			"indices":0
		}]
	}],
	"accessors":[{
		"bufferView":0,
		"type":"SCALAR",
		"max":[27],
		"componentType":5123,
		"count":42,
		"min":[0],
		"byteOffset":0
	},
	{
		"bufferView":1,
		"type":"VEC3",
		"max":[550.504638671875,
		567.8213500976563,
		561.8417358398438],
		"componentType":5126,
		"count":28,
		"min":[-980.0690307617188,
		506.9546813964844,
		-551.3032836914063],
		"byteOffset":0
	},
	{
		"bufferView":1,
		"type":"VEC3",
		"max":[1.0,
		0.0,
		0.0],
		"componentType":5126,
		"count":28,
		"min":[1.0,
		0.0,
		-1.4957003073823002e-16],
		"byteOffset":12
	},
	{
		"bufferView":1,
		"type":"VEC2",
		"max":[0.9985537528991699,
		0.998553991317749],
		"componentType":5126,
		"count":28,
		"min":[0.0014459926169365645,
		0.0014459926169365645],
		"byteOffset":24
	}],
	"bufferViews":[{
		"buffer":0,
		"byteOffset":0,
		"byteLength":84,
		"target":34963
	},
	{
		"buffer":0,
		"byteOffset":84,
		"byteLength":896,
		"target":34962,
		"byteStride":32
	}],
	"buffers":[{
		"uri":"data:application/octet-stream;base64,",
		"byteLength":980
	}]
}