# WaveFront *.obj file (generated by Cinema 4D)

v -0.141796 0.003101 -0.313324
v -0.188612 0.025109 -0.285257
v -0.141796 0.003029 -0.313498
v -0.188612 0.025037 -0.285431
v -0.141796 0.002855 -0.313570
v -0.188612 0.024863 -0.285503
v -0.141796 0.002681 -0.313498
v -0.188612 0.024689 -0.285431
v -0.141796 0.002609 -0.313324
v -0.188612 0.024617 -0.285257
v -0.141796 0.002681 -0.313150
v -0.188612 0.024689 -0.285083
v -0.141796 0.002855 -0.313078
v -0.188612 0.024863 -0.285011
v -0.141796 0.003029 -0.313150
v -0.188612 0.025037 -0.285083
v -0.153892 0.003101 -0.344207
v -0.188612 0.025109 -0.285257
v -0.153892 0.003029 -0.344380
v -0.188612 0.025037 -0.285431
v -0.153892 0.002855 -0.344452
v -0.188612 0.024863 -0.285503
v -0.153892 0.002681 -0.344380
v -0.188612 0.024689 -0.285431
v -0.153892 0.002609 -0.344207
v -0.188612 0.024617 -0.285257
v -0.153892 0.002681 -0.344033
v -0.188612 0.024689 -0.285083
v -0.153892 0.002855 -0.343961
v -0.188612 0.024863 -0.285011
v -0.153892 0.003029 -0.344033
v -0.188612 0.025037 -0.285083
v 0.009055 0.003101 -0.306796
v -0.188612 0.025109 -0.285257
v 0.009055 0.003029 -0.306970
v -0.188612 0.025037 -0.285431
v 0.009055 0.002855 -0.307042
v -0.188612 0.024863 -0.285503
v 0.009055 0.002681 -0.306970
v -0.188612 0.024689 -0.285431
v 0.009055 0.002609 -0.306796
v -0.188612 0.024617 -0.285257
v 0.009055 0.002681 -0.306622
v -0.188612 0.024689 -0.285083
v 0.009055 0.002855 -0.306550
v -0.188612 0.024863 -0.285011
v 0.009055 0.003029 -0.306622
v -0.188612 0.025037 -0.285083
v -0.081394 0.003101 -0.379072
v -0.188612 0.025109 -0.285257
v -0.081394 0.003029 -0.379246
v -0.188612 0.025037 -0.285431
v -0.081394 0.002855 -0.379318
v -0.188612 0.024863 -0.285503
v -0.081394 0.002681 -0.379246
v -0.188612 0.024689 -0.285431
v -0.081394 0.002609 -0.379072
v -0.188612 0.024617 -0.285257
v -0.081394 0.002681 -0.378898
v -0.188612 0.024689 -0.285083
v -0.081394 0.002855 -0.378826
v -0.188612 0.024863 -0.285011
v -0.081394 0.003029 -0.378898
v -0.188612 0.025037 -0.285083
v -0.131511 0.003101 -0.406676
v -0.188612 0.025109 -0.285257
v -0.131511 0.003029 -0.406850
v -0.188612 0.025037 -0.285431
v -0.131511 0.002855 -0.406922
v -0.188612 0.024863 -0.285503
v -0.131511 0.002681 -0.406850
v -0.188612 0.024689 -0.285431
v -0.131511 0.002609 -0.406676
v -0.188612 0.024617 -0.285257
v -0.131511 0.002681 -0.406502
v -0.188612 0.024689 -0.285083
v -0.131511 0.002855 -0.406430
v -0.188612 0.024863 -0.285011
v -0.131511 0.003029 -0.406502
v -0.188612 0.025037 -0.285083
# 80 vertices

vn 0.200656 0.905031 -0.374875
vn -0.350250 0.358438 -0.865313
vn -0.591563 -0.308531 -0.744781
vn -0.602844 -0.567906 -0.560281
vn -0.552938 -0.769719 -0.318781
vn -0.200656 -0.905031 0.374875
vn 0.350250 -0.358438 0.865313
vn 0.591563 0.308531 0.744781
vn 0.602844 0.567906 0.560281
vn 0.552938 0.769719 0.318844
vn -0.063938 0.921969 -0.381875
vn -0.798375 0.230406 -0.556188
vn -0.857594 0.023281 -0.513750
vn -0.848719 -0.393531 -0.352969
vn -0.777219 -0.581250 -0.240719
vn 0.063906 -0.921969 0.381813
vn 0.798375 -0.230250 0.556188
vn 0.857594 -0.023250 0.513750
vn 0.848719 0.393531 0.352969
vn 0.777219 0.581250 0.240719
vn 0.061000 0.922063 -0.381938
vn -0.057906 0.382031 -0.922281
vn -0.141813 -0.378781 -0.914469
vn -0.143063 -0.914344 -0.378719
vn -0.061000 -0.922156 0.381938
vn 0.057906 -0.382031 0.922281
vn 0.141813 0.378781 0.914469
vn 0.143063 0.914375 0.378719
# 28 normals

vt 0.276407 0.033337 0.000000
vt 0.003906 0.033337 0.000000
vt 0.003906 0.034209 0.000000
vt 0.276407 0.034209 0.000000
vt 0.003906 0.035081 0.000000
vt 0.276407 0.035081 0.000000
vt 0.003906 0.035953 0.000000
vt 0.276407 0.035953 0.000000
vt 0.003906 0.036824 0.000000
vt 0.276407 0.036824 0.000000
vt 0.003906 0.037696 0.000000
vt 0.276407 0.037696 0.000000
vt 0.003906 0.038568 0.000000
vt 0.276407 0.038568 0.000000
vt 0.003906 0.039440 0.000000
vt 0.276407 0.039440 0.000000
vt 0.003906 0.040312 0.000000
vt 0.276407 0.040312 0.000000
vt 0.309515 0.019923 0.000000
vt 0.003906 0.019923 0.000000
vt 0.003906 0.020722 0.000000
vt 0.309515 0.020722 0.000000
vt 0.003906 0.021523 0.000000
vt 0.309515 0.021523 0.000000
vt 0.003906 0.022323 0.000000
vt 0.309515 0.022323 0.000000
vt 0.003906 0.023122 0.000000
vt 0.309515 0.023122 0.000000
vt 0.003906 0.023923 0.000000
vt 0.309515 0.023923 0.000000
vt 0.003906 0.024724 0.000000
vt 0.309515 0.024724 0.000000
vt 0.003906 0.025524 0.000000
vt 0.309515 0.025524 0.000000
vt 0.309515 0.019122 0.000000
vt 0.003906 0.019122 0.000000
vt 0.987042 0.003906 0.000000
vt 0.003906 0.003906 0.000000
vt 0.003906 0.004832 0.000000
vt 0.987042 0.004832 0.000000
vt 0.003906 0.005757 0.000000
vt 0.987042 0.005757 0.000000
vt 0.003906 0.006683 0.000000
vt 0.987042 0.006683 0.000000
vt 0.003906 0.007608 0.000000
vt 0.987042 0.007608 0.000000
vt 0.003906 0.008533 0.000000
vt 0.987042 0.008533 0.000000
vt 0.003906 0.009459 0.000000
vt 0.987042 0.009459 0.000000
vt 0.003906 0.010384 0.000000
vt 0.987042 0.010384 0.000000
vt 0.003906 0.011310 0.000000
vt 0.987042 0.011310 0.000000
# 54 texture coordinates

o Lines
usemtl default
f 3/4/1 4/3/1 2/2/1 1/1/1
f 5/6/2 6/5/2 4/3/2 3/4/2
f 7/8/4 8/7/4 6/5/3 5/6/3
f 9/10/5 10/9/5 8/7/4 7/8/4
f 11/12/6 12/11/6 10/9/6 9/10/6
f 13/14/7 14/13/7 12/11/7 11/12/7
f 15/16/9 16/15/9 14/13/8 13/14/8
f 1/18/10 2/17/10 16/15/9 15/16/9
f 19/22/11 20/21/11 18/20/11 17/19/11
f 21/24/13 22/23/13 20/21/12 19/22/12
f 23/26/14 24/25/14 22/23/13 21/24/13
f 25/28/15 26/27/15 24/25/14 23/26/14
f 27/30/16 28/29/16 26/27/16 25/28/16
f 29/32/18 30/31/18 28/29/17 27/30/17
f 31/34/19 32/33/19 30/31/18 29/32/18
f 17/19/20 18/20/20 32/36/19 31/35/19
f 35/40/21 36/39/21 34/38/21 33/37/21
f 37/42/22 38/41/22 36/39/22 35/40/22
f 39/44/23 40/43/23 38/41/23 37/42/23
f 41/46/24 42/45/24 40/43/24 39/44/24
f 43/48/25 44/47/25 42/45/25 41/46/25
f 45/50/26 46/49/26 44/47/26 43/48/26
f 47/52/27 48/51/27 46/49/27 45/50/27
f 33/54/28 34/53/28 48/51/28 47/52/28
f 51/4/1 52/3/1 50/2/1 49/1/1
f 53/6/2 54/5/2 52/3/2 51/4/2
f 55/8/4 56/7/4 54/5/3 53/6/3
f 57/10/5 58/9/5 56/7/4 55/8/4
f 59/12/6 60/11/6 58/9/6 57/10/6
f 61/14/7 62/13/7 60/11/7 59/12/7
f 63/16/9 64/15/9 62/13/8 61/14/8
f 49/18/10 50/17/10 64/15/9 63/16/9
f 67/4/1 68/3/1 66/2/1 65/1/1
f 69/6/2 70/5/2 68/3/2 67/4/2
f 71/8/4 72/7/4 70/5/3 69/6/3
f 73/10/5 74/9/5 72/7/4 71/8/4
f 75/12/6 76/11/6 74/9/6 73/10/6
f 77/14/7 78/13/7 76/11/7 75/12/7
f 79/16/9 80/15/9 78/13/8 77/14/8
f 65/18/10 66/17/10 80/15/9 79/16/9

