{
	"asset":{
		"version":"2.0",
		"generator":"Created using the official Cinema 4D glTF Exporter 1.000x284978"
	},
	"scenes":[{
		"nodes":[0]
	}],
	"nodes":[{
		"name":"Lines",
		"translation":[0.0,
		0.0,
		0.0],
		"rotation":[0.0,
		0.0,
		0.0,
		-1.0],
		"scale":[1.0,
		1.0,
		1.0],
		"mesh":0
	}],
	"meshes":[{
		"name":"Lines",
		"primitives":[{
			"attributes":{
				"POSITION":1,
				"NORMAL":2,
				"TEXCOORD_0":3
			},
			"indices":0
		}]
	}],
	"accessors":[{
		"bufferView":0,
		"type":"SCALAR",
		"componentType":5123,
		"count":3456,
		"byteOffset":0,
		"min":[0],
		"max":[683]
	},
	{
		"bufferView":1,
		"type":"VEC3",
		"componentType":5126,
		"count":684,
		"byteOffset":0,
		"min":[-18.84469985961914,
		0.1826999932527542,
		-40.33039855957031],
		"max":[0.7552000284194946,
		3.065500020980835,
		-28.568599700927736]
	},
	{
		"bufferView":1,
		"type":"VEC3",
		"componentType":5126,
		"count":684,
		"byteOffset":12,
		"min":[-0.9225625395774841,
		-0.9909688234329224,
		-0.9862812757492065],
		"max":[0.9225625395774841,
		0.9909688234329224,
		0.9862812757492065]
	},
	{
		"bufferView":1,
		"type":"VEC2",
		"componentType":5126,
		"count":684,
		"byteOffset":24,
		"min":[0.00390625,
		0.5672241449356079],
		"max":[0.9960938096046448,
		0.99609375]
	}],
	"bufferViews":[{
		"buffer":0,
		"byteOffset":0,
		"byteLength":6912,
		"target":34963
	},
	{
		"buffer":0,
		"byteOffset":6912,
		"byteLength":21888,
		"target":34962,
		"byteStride":32
	}],
	"buffers":[{
		"uri":"data:application/octet-stream;base64,",
		"byteLength":28800
	}]
}