{
	"asset":{
		"version":"2.0",
		"generator":"Created using the official Cinema 4D glTF Exporter 1.000x284978"
	},
	"scenes":[{
		"nodes":[0]
	}],
	"accessors":[{
		"min":[0],
		"bufferView":0,
		"type":"SCALAR",
		"componentType":5123,
		"count":3267,
		"byteOffset":0,
		"max":[1186]
	},
	{
		"min":[-352.45001220703127,
		0.0,
		-350.6180114746094],
		"bufferView":1,
		"type":"VEC3",
		"componentType":5126,
		"count":1187,
		"byteOffset":0,
		"max":[356.6929931640625,
		0.0,
		352.7550048828125]
	},
	{
		"min":[0.0,
		-1.0,
		0.0],
		"bufferView":1,
		"type":"VEC3",
		"componentType":5126,
		"count":1187,
		"byteOffset":12,
		"max":[0.0,
		1.0,
		0.0]
	},
	{
		"min":[0.0,
		0.0],
		"bufferView":1,
		"type":"VEC2",
		"componentType":5126,
		"count":1187,
		"byteOffset":24,
		"max":[1.0,
		1.0]
	}],
	"nodes":[{
		"rotation":[0.0,
		0.0,
		0.0,
		-1.0],
		"name":"Map",
		"translation":[0.0,
		0.0,
		0.0],
		"scale":[1.0,
		1.0,
		1.0],
		"mesh":0
	}],
	"meshes":[{
		"name":"Map",
		"primitives":[{
			"attributes":{
				"POSITION":1,
				"NORMAL":2,
				"TEXCOORD_0":3
			},
			"indices":0
		}]
	}],
	"bufferViews":[{
		"buffer":0,
		"byteOffset":0,
		"byteLength":6534,
		"target":34963
	},
	{
		"buffer":0,
		"byteOffset":6536,
		"byteLength":37984,
		"target":34962,
		"byteStride":32
	}],
	"buffers":[{
		"uri":"data:application/octet-stream;base64,",
		"byteLength":44520
	}]
}