{
	"asset":{
		"version":"2.0",
		"generator":"Created using the official Cinema 4D glTF Exporter 1.000x284978"
	},
	"scenes":[{
		"nodes":[0]
	}],
	"nodes":[{
		"name":"Planes",
		"translation":[0.0,
		0.0,
		0.0],
		"rotation":[0.0,
		0.0,
		0.0,
		-1.0],
		"scale":[1.0,
		1.0,
		1.0],
		"mesh":0
	}],
	"meshes":[{
		"name":"Planes",
		"primitives":[{
			"attributes":{
				"POSITION":1,
				"NORMAL":2,
				"TEXCOORD_0":3
			},
			"indices":0
		}]
	}],
	"accessors":[{
		"bufferView":0,
		"type":"SCALAR",
		"componentType":5123,
		"count":34848,
		"byteOffset":0,
		"min":[0],
		"max":[21288]
	},
	{
		"bufferView":1,
		"type":"VEC3",
		"componentType":5126,
		"count":21289,
		"byteOffset":0,
		"min":[-16.625368118286134,
		0.16448929905891419,
		-43.33842468261719],
		"max":[1.87599515914917,
		0.4723256826400757,
		-29.444494247436525]
	},
	{
		"bufferView":1,
		"type":"VEC3",
		"componentType":5126,
		"count":21289,
		"byteOffset":12,
		"min":[-1.0,
		-1.0,
		-1.0],
		"max":[1.0,
		1.0,
		1.0]
	},
	{
		"bufferView":1,
		"type":"VEC2",
		"componentType":5126,
		"count":21289,
		"byteOffset":24,
		"min":[0.125,
		-1.1920928955078126e-7],
		"max":[1.0,
		1.0]
	}],
	"bufferViews":[{
		"buffer":0,
		"byteOffset":0,
		"byteLength":69696,
		"target":34963
	},
	{
		"buffer":0,
		"byteOffset":69696,
		"byteLength":681248,
		"target":34962,
		"byteStride":32
	}],
	"buffers":[{
		"uri":"data:application/octet-stream;base64,",
		"byteLength":750944
	}]
}