{
	"asset":{
		"version":"2.0",
		"generator":"Created using the official Cinema 4D glTF Exporter 1.000x284978"
	},
	"scenes":[{
		"nodes":[0]
	}],
	"nodes":[{
		"name":"ROADS",
		"translation":[0.0,
		0.0,
		0.0],
		"rotation":[0.0,
		0.0,
		0.0,
		-1.0],
		"scale":[1.0,
		1.0,
		1.0],
		"children":[1,
		2,
		3,
		4]
	},
	{
		"name":"C4",
		"translation":[0.0,
		0.0,
		0.0],
		"rotation":[0.0,
		0.0,
		0.0,
		-1.0],
		"scale":[1.0,
		1.0,
		1.0],
		"mesh":0
	},
	{
		"name":"C3",
		"translation":[0.0,
		0.0,
		0.0],
		"rotation":[0.0,
		0.0,
		0.0,
		-1.0],
		"scale":[1.0,
		1.0,
		1.0],
		"mesh":1
	},
	{
		"name":"C2",
		"translation":[0.0,
		0.0,
		0.0],
		"rotation":[0.0,
		0.0,
		0.0,
		-1.0],
		"scale":[1.0,
		1.0,
		1.0],
		"mesh":2
	},
	{
		"name":"C1",
		"translation":[0.0,
		0.0,
		0.0],
		"rotation":[0.0,
		0.0,
		0.0,
		-1.0],
		"scale":[1.0,
		1.0,
		1.0],
		"mesh":3
	}],
	"meshes":[{
		"name":"C4",
		"primitives":[{
			"attributes":{
				"POSITION":1,
				"NORMAL":2,
				"TEXCOORD_0":3
			},
			"indices":0
		}]
	},
	{
		"name":"C3",
		"primitives":[{
			"attributes":{
				"POSITION":5,
				"NORMAL":6,
				"TEXCOORD_0":7
			},
			"indices":4
		}]
	},
	{
		"name":"C2",
		"primitives":[{
			"attributes":{
				"POSITION":9,
				"NORMAL":10,
				"TEXCOORD_0":11
			},
			"indices":8
		}]
	},
	{
		"name":"C1",
		"primitives":[{
			"attributes":{
				"POSITION":13,
				"NORMAL":14,
				"TEXCOORD_0":15
			},
			"indices":12
		}]
	}],
	"accessors":[{
		"bufferView":0,
		"type":"SCALAR",
		"componentType":5123,
		"count":300,
		"byteOffset":0,
		"min":[0],
		"max":[101]
	},
	{
		"bufferView":1,
		"type":"VEC3",
		"componentType":5126,
		"count":102,
		"byteOffset":0,
		"min":[-2159.64501953125,
		5.088799953460693,
		217.1490020751953],
		"max":[-222.6230010986328,
		5.088799953460693,
		2068.786376953125]
	},
	{
		"bufferView":1,
		"type":"VEC3",
		"componentType":5126,
		"count":102,
		"byteOffset":12,
		"min":[0.0,
		-1.0,
		0.0],
		"max":[0.0,
		-1.0,
		0.0]
	},
	{
		"bufferView":1,
		"type":"VEC2",
		"componentType":5126,
		"count":102,
		"byteOffset":24,
		"min":[0.00390625,
		0.5572230815887451],
		"max":[0.99609375,
		0.559295654296875]
	},
	{
		"bufferView":2,
		"type":"SCALAR",
		"componentType":5123,
		"count":300,
		"byteOffset":0,
		"min":[0],
		"max":[101]
	},
	{
		"bufferView":3,
		"type":"VEC3",
		"componentType":5126,
		"count":102,
		"byteOffset":0,
		"min":[-2159.64501953125,
		5.088799953460693,
		227.93783569335938],
		"max":[-233.4117431640625,
		5.088799953460693,
		2068.838134765625]
	},
	{
		"bufferView":3,
		"type":"VEC3",
		"componentType":5126,
		"count":102,
		"byteOffset":12,
		"min":[0.0,
		-1.0,
		0.0],
		"max":[0.0,
		-1.0,
		0.0]
	},
	{
		"bufferView":3,
		"type":"VEC2",
		"componentType":5126,
		"count":102,
		"byteOffset":24,
		"min":[0.00390625,
		0.5538439750671387],
		"max":[0.99609375,
		0.5564115047454834]
	},
	{
		"bufferView":4,
		"type":"SCALAR",
		"componentType":5123,
		"count":300,
		"byteOffset":0,
		"min":[0],
		"max":[101]
	},
	{
		"bufferView":5,
		"type":"VEC3",
		"componentType":5126,
		"count":102,
		"byteOffset":0,
		"min":[-2159.64501953125,
		5.088799953460693,
		240.0872344970703],
		"max":[-245.56101989746095,
		5.088799953460693,
		2068.900146484375]
	},
	{
		"bufferView":5,
		"type":"VEC3",
		"componentType":5126,
		"count":102,
		"byteOffset":12,
		"min":[0.0,
		-1.0,
		0.0],
		"max":[0.0,
		-1.0,
		0.0]
	},
	{
		"bufferView":5,
		"type":"VEC2",
		"componentType":5126,
		"count":102,
		"byteOffset":24,
		"min":[0.00390625,
		0.5498148202896118],
		"max":[0.99609375,
		0.5531375408172607]
	},
	{
		"bufferView":6,
		"type":"SCALAR",
		"componentType":5123,
		"count":300,
		"byteOffset":0,
		"min":[0],
		"max":[101]
	},
	{
		"bufferView":7,
		"type":"VEC3",
		"componentType":5126,
		"count":102,
		"byteOffset":0,
		"min":[-2159.64501953125,
		5.088799953460693,
		255.4543914794922],
		"max":[-260.9280090332031,
		5.088799953460693,
		2068.9609375]
	},
	{
		"bufferView":7,
		"type":"VEC3",
		"componentType":5126,
		"count":102,
		"byteOffset":12,
		"min":[0.0,
		-1.0,
		0.0],
		"max":[0.0,
		-1.0,
		0.0]
	},
	{
		"bufferView":7,
		"type":"VEC2",
		"componentType":5126,
		"count":102,
		"byteOffset":24,
		"min":[0.00390625,
		0.5458288192749023],
		"max":[0.99609375,
		0.5490034818649292]
	}],
	"bufferViews":[{
		"buffer":0,
		"byteOffset":0,
		"byteLength":600,
		"target":34963
	},
	{
		"buffer":0,
		"byteOffset":600,
		"byteLength":3264,
		"target":34962,
		"byteStride":32
	},
	{
		"buffer":1,
		"byteOffset":0,
		"byteLength":600,
		"target":34963
	},
	{
		"buffer":1,
		"byteOffset":600,
		"byteLength":3264,
		"target":34962,
		"byteStride":32
	},
	{
		"buffer":2,
		"byteOffset":0,
		"byteLength":600,
		"target":34963
	},
	{
		"buffer":2,
		"byteOffset":600,
		"byteLength":3264,
		"target":34962,
		"byteStride":32
	},
	{
		"buffer":3,
		"byteOffset":0,
		"byteLength":600,
		"target":34963
	},
	{
		"buffer":3,
		"byteOffset":600,
		"byteLength":3264,
		"target":34962,
		"byteStride":32
	}],
	"buffers":[{
		"uri":"data:application/octet-stream;base64,",
		"byteLength":3864
	},
	{
		"uri":"data:application/octet-stream;base64,",
		"byteLength":3864
	},
	{
		"uri":"data:application/octet-stream;base64,",
		"byteLength":3864
	},
	{
		"uri":"data:application/octet-stream;base64,",
		"byteLength":3864
	}]
}