{
	"asset":{
		"version":"2.0",
		"generator":"Created using the official Cinema 4D glTF Exporter 1.000x284978"
	},
	"scenes":[{
		"nodes":[0]
	}],
	"nodes":[{
		"name":"Test2",
		"translation":[0.0,
		0.0,
		0.0],
		"rotation":[0.0,
		0.0,
		0.0,
		-1.0],
		"scale":[1.0,
		1.0,
		1.0],
		"children":[1,
		2]
	},
	{
		"name":"Building",
		"translation":[0.0,
		10.0,
		0.0],
		"rotation":[0.0,
		0.0,
		0.0,
		-1.0],
		"scale":[1.0,
		1.0,
		1.0],
		"mesh":0
	},
	{
		"name":"Floor",
		"translation":[0.0,
		10.0,
		0.0],
		"rotation":[0.0,
		0.0,
		0.0,
		-1.0],
		"scale":[1.0,
		1.0,
		1.0],
		"mesh":1
	}],
	"meshes":[{
		"name":"Building",
		"primitives":[{
			"attributes":{
				"POSITION":1,
				"NORMAL":2,
				"TEXCOORD_0":3
			},
			"indices":0
		}]
	},
	{
		"name":"Floor",
		"primitives":[{
			"attributes":{
				"POSITION":5,
				"NORMAL":6,
				"TEXCOORD_0":7
			},
			"indices":4
		}]
	}],
	"accessors":[{
		"bufferView":0,
		"type":"SCALAR",
		"componentType":5123,
		"count":147,
		"byteOffset":0,
		"min":[0],
		"max":[60]
	},
	{
		"bufferView":1,
		"type":"VEC3",
		"componentType":5126,
		"count":61,
		"byteOffset":0,
		"min":[-655.5885009765625,
		0.0,
		-680.2439575195313],
		"max":[-344.4115295410156,
		155.17929077148438,
		-319.7560729980469]
	},
	{
		"bufferView":1,
		"type":"VEC3",
		"componentType":5126,
		"count":61,
		"byteOffset":12,
		"min":[-1.0,
		0.0,
		-1.0],
		"max":[1.0,
		1.0,
		1.0]
	},
	{
		"bufferView":1,
		"type":"VEC2",
		"componentType":5126,
		"count":61,
		"byteOffset":24,
		"min":[0.0,
		0.37775933742523196],
		"max":[1.0,
		1.0]
	},
	{
		"bufferView":2,
		"type":"SCALAR",
		"componentType":5123,
		"count":27,
		"byteOffset":0,
		"min":[0],
		"max":[10]
	},
	{
		"bufferView":3,
		"type":"VEC3",
		"componentType":5126,
		"count":11,
		"byteOffset":0,
		"min":[-655.5885009765625,
		0.0,
		-680.2439575195313],
		"max":[-344.4115295410156,
		0.0,
		-319.7560729980469]
	},
	{
		"bufferView":3,
		"type":"VEC3",
		"componentType":5126,
		"count":11,
		"byteOffset":12,
		"min":[0.0,
		-1.0,
		0.0],
		"max":[0.0,
		-1.0,
		0.0]
	},
	{
		"bufferView":3,
		"type":"VEC2",
		"componentType":5126,
		"count":11,
		"byteOffset":24,
		"min":[0.009121419861912728,
		0.009121419861912728],
		"max":[0.8565845489501953,
		0.9908785820007324]
	}],
	"bufferViews":[{
		"buffer":0,
		"byteOffset":0,
		"byteLength":294,
		"target":34963
	},
	{
		"buffer":0,
		"byteOffset":296,
		"byteLength":1952,
		"target":34962,
		"byteStride":32
	},
	{
		"buffer":1,
		"byteOffset":0,
		"byteLength":54,
		"target":34963
	},
	{
		"buffer":1,
		"byteOffset":56,
		"byteLength":352,
		"target":34962,
		"byteStride":32
	}],
	"buffers":[{
		"uri":"data:application/octet-stream;base64,",
		"byteLength":2248
	},
	{
		"uri":"data:application/octet-stream;base64,",
		"byteLength":408
	}]
}