{
	"asset":{
		"version":"2.0",
		"generator":"Created using the official Cinema 4D glTF Exporter 1.000x284978"
	},
	"scenes":[{
		"nodes":[0]
	}],
	"nodes":[{
		"name":"Traffic",
		"translation":[0.0,
		0.0,
		0.0],
		"rotation":[0.0,
		0.0,
		0.0,
		-1.0],
		"scale":[1.0,
		1.0,
		1.0],
		"mesh":0
	}],
	"meshes":[{
		"name":"Traffic",
		"primitives":[{
			"attributes":{
				"POSITION":1,
				"NORMAL":2,
				"TEXCOORD_0":3
			},
			"indices":0,
			"material":0
		}]
	}],
	"accessors":[{
		"bufferView":0,
		"type":"SCALAR",
		"componentType":5123,
		"count":1044,
		"byteOffset":0,
		"min":[0],
		"max":[375]
	},
	{
		"bufferView":1,
		"type":"VEC3",
		"componentType":5126,
		"count":376,
		"byteOffset":0,
		"min":[-79.43470001220703,
		-0.2054339349269867,
		-80.72380065917969],
		"max":[79.18479919433594,
		0.08961602300405503,
		80.64949798583985]
	},
	{
		"bufferView":1,
		"type":"VEC3",
		"componentType":5126,
		"count":376,
		"byteOffset":12,
		"min":[0.0,
		1.0,
		0.0],
		"max":[0.0,
		1.0,
		0.0]
	},
	{
		"bufferView":1,
		"type":"VEC2",
		"componentType":5126,
		"count":376,
		"byteOffset":24,
		"min":[0.00390625,
		0.8606027364730835],
		"max":[0.9950803518295288,
		0.99609375]
	}],
	"bufferViews":[{
		"buffer":0,
		"byteOffset":0,
		"byteLength":2088,
		"target":34963
	},
	{
		"buffer":0,
		"byteOffset":2088,
		"byteLength":12032,
		"byteStride":32,
		"target":34962
	}],
	"buffers":[{
		"uri":"data:application/octet-stream;base64,",
		"byteLength":14120
	}],
	"materials":[{
		"pbrMetallicRoughness":{
			"baseColorFactor":[1.0,
			0.39,
			0.39,
			1.0],
			"metallicFactor":0.0,
			"roughnessFactor":0.5
		},
		"emissiveFactor":[0.0,
		0.0,
		0.0],
		"alphaMode":"OPAQUE",
		"doubleSided":true,
		"name":"Mat.6"
	}]
}