# WaveFront *.obj file (generated by Cinema 4D)

v -0.108388 0.034764 0.132007
v -0.108388 0.144698 0.132007
v -0.108475 0.034764 0.131795
v -0.108475 0.144698 0.131795
v -0.108688 0.034764 0.131707
v -0.108688 0.144698 0.131707
v -0.108900 0.034764 0.131795
v -0.108900 0.144698 0.131795
v -0.108988 0.034764 0.132007
v -0.108988 0.144698 0.132007
v -0.108900 0.034764 0.132220
v -0.108900 0.144698 0.132220
v -0.108688 0.034764 0.132307
v -0.108688 0.144698 0.132307
v -0.108475 0.034764 0.132220
v -0.108475 0.144698 0.132220
v 0.128156 0.002185 -0.066075
v 0.128156 0.144698 -0.066075
v 0.128068 0.002185 -0.066287
v 0.128068 0.144698 -0.066287
v 0.127856 0.002185 -0.066375
v 0.127856 0.144698 -0.066375
v 0.127644 0.002185 -0.066287
v 0.127644 0.144698 -0.066287
v 0.127556 0.002185 -0.066075
v 0.127556 0.144698 -0.066075
v 0.127644 0.002185 -0.065863
v 0.127644 0.144698 -0.065863
v 0.127856 0.002185 -0.065775
v 0.127856 0.144698 -0.065775
v 0.128068 0.002185 -0.065863
v 0.128068 0.144698 -0.065863
v -0.151213 0.002185 -0.143842
v -0.151213 0.144698 -0.143842
v -0.151301 0.002185 -0.144054
v -0.151301 0.144698 -0.144054
v -0.151513 0.002185 -0.144142
v -0.151513 0.144698 -0.144142
v -0.151725 0.002185 -0.144054
v -0.151725 0.144698 -0.144054
v -0.151813 0.002185 -0.143842
v -0.151813 0.144698 -0.143842
v -0.151725 0.002185 -0.143630
v -0.151725 0.144698 -0.143630
v -0.151513 0.002185 -0.143542
v -0.151513 0.144698 -0.143542
v -0.151301 0.002185 -0.143630
v -0.151301 0.144698 -0.143630
v -0.026648 0.002185 0.002579
v -0.026648 0.144698 0.002579
v -0.026736 0.002185 0.002366
v -0.026736 0.144698 0.002366
v -0.026948 0.002185 0.002279
v -0.026948 0.144698 0.002279
v -0.027160 0.002185 0.002366
v -0.027160 0.144698 0.002366
v -0.027248 0.002185 0.002579
v -0.027248 0.144698 0.002579
v -0.027160 0.002185 0.002791
v -0.027160 0.144698 0.002791
v -0.026948 0.002185 0.002879
v -0.026948 0.144698 0.002879
v -0.026736 0.002185 0.002791
v -0.026736 0.144698 0.002791
# 64 vertices

vn 0.923875 0.000000 -0.382688
vn 0.382688 0.000000 -0.923844
vn -0.382688 0.000000 -0.923875
vn -0.923875 0.000000 -0.382688
vn -0.923844 0.000000 0.382688
vn -0.382688 0.000000 0.923875
vn 0.382688 0.000000 0.923844
vn 0.923844 0.000000 0.382688
vn 0.382656 0.000000 -0.923875
vn 0.382656 0.000000 0.923875
vn 0.382625 0.000000 -0.923875
vn -0.382656 0.000000 -0.923875
vn -0.923875 0.000000 0.382688
vn -0.382656 0.000000 0.923875
vn 0.382625 0.000000 0.923875
vn 0.923875 0.000000 0.382688
vn 0.923875 0.000000 -0.382656
vn 0.923875 0.000000 0.382656
# 18 normals

vt 0.003906 0.176882 0.000000
vt 0.995860 0.176882 0.000000
vt 0.995860 0.173431 0.000000
vt 0.003906 0.173431 0.000000
vt 0.995860 0.169961 0.000000
vt 0.003906 0.169961 0.000000
vt 0.995860 0.166505 0.000000
vt 0.003906 0.166505 0.000000
vt 0.995860 0.163049 0.000000
vt 0.003906 0.163049 0.000000
vt 0.995860 0.159579 0.000000
vt 0.003906 0.159579 0.000000
vt 0.995860 0.156128 0.000000
vt 0.003906 0.156128 0.000000
vt 0.995860 0.152664 0.000000
vt 0.003906 0.152664 0.000000
vt 0.995860 0.149199 0.000000
vt 0.003906 0.149199 0.000000
vt 0.995860 0.446733 0.000000
vt 0.003906 0.446733 0.000000
vt 0.003906 0.450189 0.000000
vt 0.995860 0.450189 0.000000
vt 0.003906 0.453646 0.000000
vt 0.995860 0.453646 0.000000
vt 0.003906 0.457102 0.000000
vt 0.995860 0.457102 0.000000
vt 0.003906 0.460558 0.000000
vt 0.995860 0.460558 0.000000
vt 0.003906 0.464015 0.000000
vt 0.995860 0.464015 0.000000
vt 0.003906 0.467471 0.000000
vt 0.995860 0.467471 0.000000
vt 0.995860 0.439821 0.000000
vt 0.003906 0.439821 0.000000
vt 0.003906 0.443277 0.000000
vt 0.995860 0.443277 0.000000
vt 0.003906 0.028106 0.000000
vt 0.996094 0.028106 0.000000
vt 0.996094 0.024649 0.000000
vt 0.003906 0.024649 0.000000
vt 0.996094 0.021192 0.000000
vt 0.003906 0.021192 0.000000
vt 0.996094 0.017735 0.000000
vt 0.003906 0.017735 0.000000
vt 0.996094 0.014277 0.000000
vt 0.003906 0.014277 0.000000
vt 0.996094 0.010820 0.000000
vt 0.003906 0.010820 0.000000
vt 0.996094 0.007363 0.000000
vt 0.003906 0.007363 0.000000
vt 0.996094 0.003906 0.000000
vt 0.003906 0.003906 0.000000
vt 0.003906 0.031563 0.000000
vt 0.996094 0.031563 0.000000
vt 0.003906 0.315272 0.000000
vt 0.995860 0.315272 0.000000
vt 0.995860 0.311802 0.000000
vt 0.003906 0.311802 0.000000
vt 0.995860 0.308351 0.000000
vt 0.003906 0.308351 0.000000
vt 0.995860 0.304901 0.000000
vt 0.003906 0.304901 0.000000
vt 0.995860 0.301431 0.000000
vt 0.003906 0.301431 0.000000
vt 0.995860 0.297974 0.000000
vt 0.003906 0.297974 0.000000
vt 0.995860 0.294518 0.000000
vt 0.003906 0.294518 0.000000
vt 0.003906 0.322185 0.000000
vt 0.995860 0.322185 0.000000
vt 0.995860 0.318728 0.000000
vt 0.003906 0.318728 0.000000
# 72 texture coordinates

o UpLines
usemtl default
f 3/4/1 4/3/1 2/2/1 1/1/1
f 5/6/2 6/5/2 4/3/2 3/4/2
f 7/8/3 8/7/3 6/5/3 5/6/3
f 9/10/4 10/9/4 8/7/4 7/8/4
f 11/12/5 12/11/5 10/9/5 9/10/5
f 13/14/6 14/13/6 12/11/6 11/12/6
f 15/16/7 16/15/7 14/13/7 13/14/7
f 1/18/8 2/17/8 16/15/8 15/16/8
f 19/22/1 20/21/1 18/20/1 17/19/1
f 21/24/9 22/23/9 20/21/9 19/22/9
f 23/26/3 24/25/3 22/23/3 21/24/3
f 25/28/4 26/27/4 24/25/4 23/26/4
f 27/30/5 28/29/5 26/27/5 25/28/5
f 29/32/6 30/31/6 28/29/6 27/30/6
f 31/36/10 32/35/10 30/34/10 29/33/10
f 17/19/8 18/20/8 32/35/8 31/36/8
f 35/40/1 36/39/1 34/38/1 33/37/1
f 37/42/11 38/41/11 36/39/11 35/40/11
f 39/44/12 40/43/12 38/41/12 37/42/12
f 41/46/4 42/45/4 40/43/4 39/44/4
f 43/48/13 44/47/13 42/45/13 41/46/13
f 45/50/14 46/49/14 44/47/14 43/48/14
f 47/52/15 48/51/15 46/49/15 45/50/15
f 33/37/16 34/38/16 48/54/16 47/53/16
f 51/58/17 52/57/17 50/56/17 49/55/17
f 53/60/9 54/59/9 52/57/9 51/58/9
f 55/62/12 56/61/12 54/59/12 53/60/12
f 57/64/4 58/63/4 56/61/4 55/62/4
f 59/66/13 60/65/13 58/63/13 57/64/13
f 61/68/14 62/67/14 60/65/14 59/66/14
f 63/72/10 64/71/10 62/70/10 61/69/10
f 49/55/18 50/56/18 64/71/18 63/72/18

