{
	"asset":{
		"version":"2.0",
		"generator":"Created using the official Cinema 4D glTF Exporter 1.000x284978"
	},
	"scenes":[{
		"nodes":[0]
	}],
	"nodes":[{
		"name":"UpLines",
		"translation":[0.0,
		0.0,
		0.0],
		"rotation":[0.0,
		0.0,
		0.0,
		-1.0],
		"scale":[1.0,
		1.0,
		1.0],
		"mesh":0
	}],
	"meshes":[{
		"name":"UpLines",
		"primitives":[{
			"attributes":{
				"POSITION":1,
				"NORMAL":2,
				"TEXCOORD_0":3
			},
			"indices":0
		}]
	}],
	"accessors":[{
		"bufferView":0,
		"type":"SCALAR",
		"componentType":5123,
		"count":192,
		"byteOffset":0,
		"min":[0],
		"max":[127]
	},
	{
		"bufferView":1,
		"type":"VEC3",
		"componentType":5126,
		"count":128,
		"byteOffset":0,
		"min":[-15.181300163269043,
		0.21850000321865083,
		-14.414199829101563],
		"max":[12.815600395202637,
		6.262165546417236,
		13.23069953918457]
	},
	{
		"bufferView":1,
		"type":"VEC3",
		"componentType":5126,
		"count":128,
		"byteOffset":12,
		"min":[-0.9238438010215759,
		0.0,
		-0.9238438010215759],
		"max":[0.9238438010215759,
		0.0,
		0.9238438010215759]
	},
	{
		"bufferView":1,
		"type":"VEC2",
		"componentType":5126,
		"count":128,
		"byteOffset":24,
		"min":[0.0038367838133126499,
		0.5297555923461914],
		"max":[0.9960938096046448,
		0.99609375]
	}],
	"bufferViews":[{
		"buffer":0,
		"byteOffset":0,
		"byteLength":384,
		"target":34963
	},
	{
		"buffer":0,
		"byteOffset":384,
		"byteLength":4096,
		"target":34962,
		"byteStride":32
	}],
	"buffers":[{
		"uri":"data:application/octet-stream;base64,",
		"byteLength":4480
	}]
}