{
	"asset":{
		"version":"2.0",
		"generator":"Created using the official Cinema 4D glTF Exporter 1.000x284978"
	},
	"scenes":[{
		"nodes":[0]
	}],
	"nodes":[{
		"name":"Base",
		"translation":[0.0,
		0.0,
		0.0],
		"rotation":[0.0,
		0.0,
		0.0,
		-1.0],
		"scale":[1.0,
		1.0,
		1.0],
		"mesh":0
	}],
	"meshes":[{
		"name":"Base",
		"primitives":[{
			"attributes":{
				"POSITION":1,
				"NORMAL":2,
				"TEXCOORD_0":3
			},
			"indices":0
		}]
	}],
	"accessors":[{
		"min":[0],
		"bufferView":0,
		"type":"SCALAR",
		"componentType":5123,
		"count":1368,
		"byteOffset":0,
		"max":[525]
	},
	{
		"min":[-76.58723449707031,
		0.0,
		-74.83667755126953],
		"bufferView":1,
		"type":"VEC3",
		"componentType":5126,
		"count":526,
		"byteOffset":0,
		"max":[76.58723449707031,
		0.0,
		74.83667755126953]
	},
	{
		"min":[0.0,
		-1.0,
		0.0],
		"bufferView":1,
		"type":"VEC3",
		"componentType":5126,
		"count":526,
		"byteOffset":12,
		"max":[0.0,
		-1.0,
		0.0]
	},
	{
		"min":[0.0,
		0.0],
		"bufferView":1,
		"type":"VEC2",
		"componentType":5126,
		"count":526,
		"byteOffset":24,
		"max":[1.0,
		1.0]
	}],
	"bufferViews":[{
		"buffer":0,
		"byteOffset":0,
		"byteLength":2736,
		"target":34963
	},
	{
		"buffer":0,
		"byteOffset":2736,
		"byteLength":16832,
		"target":34962,
		"byteStride":32
	}],
	"buffers":[{
		"uri":"data:application/octet-stream;base64,",
		"byteLength":19568
	}]
}